<svg height='100px' width='100px'  fill="#000000" xmlns="http://www.w3.org/2000/svg" xmlns:xlink="http://www.w3.org/1999/xlink" version="1.1" x="0px" y="0px" viewBox="0 0 100 100" enable-background="new 0 0 100 100" xml:space="preserve"><path d="M93.928,69.307C93.939,69.222,94,69.147,94,69.059V13.086c0-0.193-0.076-0.372-0.131-0.55  c-0.012-0.041-0.008-0.082-0.022-0.123c-0.004-0.011-0.022-0.015-0.026-0.026c-0.111-0.282-0.295-0.516-0.518-0.713  c-0.06-0.056-0.124-0.085-0.191-0.13c-0.186-0.126-0.39-0.215-0.614-0.271c-0.054-0.015-0.095-0.06-0.15-0.067L31.713,1.875  c-0.661-0.108-1.323,0.152-1.752,0.661c0,0-23.616,28.521-23.674,28.748C6.263,31.377,5.96,87.015,5.96,87.015  c0,0.94,0.227,1.738,1.153,1.88c0,0,63.057,9.283,63.086,9.246l23.319-27.924c0.059-0.07,0.079-0.126,0.126-0.204  c0.068-0.111,0.151-0.202,0.196-0.328C93.889,69.558,93.908,69.44,93.928,69.307z M32.195,5.797l56.246,8.655L67.963,39.029  l-56.249-8.651L32.195,5.797z M10,33.962l57,8.741v52.125l-57-8.741V33.962z M71,41.763l19-23.421v50.025L71,91.792V41.763z"></path></svg>