<svg height='100px' width='100px'  fill="#000000" xmlns="http://www.w3.org/2000/svg" xmlns:xlink="http://www.w3.org/1999/xlink" version="1.1" x="0px" y="0px" viewBox="0 0 100 100" enable-background="new 0 0 100 100" xml:space="preserve"><g><path d="M97.128,65.893L71.195,3.047c-0.333-0.804-1.223-1.232-2.057-0.969L20.974,16.962c-0.194,0.059-0.375,0.155-0.537,0.28   L3.674,30.255c-0.737,0.362-1.089,1.186-0.863,1.967c0.006,0.026-0.008,0.05,0,0.076c0.003,0.013,0.018,0.02,0.021,0.033   c0.01,0.023,0.005,0.049,0.015,0.073l26.48,63.768c0.188,0.451,0.57,0.715,0.992,0.873c0.119,0.053,0.244,0.083,0.373,0.109   c0.069,0.01,0.125,0.059,0.194,0.059c0.02,0,0.036-0.01,0.053-0.01c0.033,0,0.059,0.017,0.092,0.017   c0.046,0,0.092-0.003,0.138-0.007c0.05-0.003,0.089-0.029,0.135-0.039c0.083-0.014,0.165-0.01,0.244-0.036l50.317-15.557   c0.032-0.01,0.056-0.036,0.089-0.046c0.25-0.076,0.494-0.185,0.698-0.38l14.08-13.397C97.237,67.276,97.396,66.535,97.128,65.893z    M10.1,33.906l16.506,27.558l1.928,23.999L7.032,33.686L10.1,33.906z M30.065,62.456l28.242,0.243   C58.519,62.863,58.759,63,59.043,63c0.003,0,0.006,0,0.006,0l19.004,16.174L32.546,93.272L30.065,62.456z M57.995,59.371   l-28.892-0.3L13.688,33.33L67.399,6.8L57.995,59.371z M22.262,20.096l28.315-8.752l-39.133,19.33   c-0.079-0.017-0.145-0.066-0.228-0.073L8.94,30.439L22.262,20.096z M81.424,77.666L61.218,60.521l9.084-50.795L93.569,66.11   L81.424,77.666z"></path></g></svg>