<svg height='100px' width='100px'  fill="#000000" xmlns="http://www.w3.org/2000/svg" xmlns:xlink="http://www.w3.org/1999/xlink" version="1.1" x="0px" y="0px" viewBox="0 0 100 100" enable-background="new 0 0 100 100" xml:space="preserve"><g><path d="M44.258,97.516c-0.052,0-0.134,0.009-0.146-0.007h-0.003h-0.003l0,0c-0.18-0.018-0.36-0.066-0.527-0.149l0,0   c-0.006-0.003-0.009-0.006-0.015-0.009l0,0h-0.003l-22.98-11.488c-0.274-0.138-0.503-0.354-0.659-0.623L4.604,58.435   c-0.177-0.314-0.238-0.668-0.189-1.003l3.828-26.803c0.042-0.287,0.162-0.559,0.348-0.781L27.733,6.882   c0.034-0.045,0.073-0.085,0.113-0.125l0,0l0.003-0.003c0,0,0,0,0.003-0.003c0,0-0.003,0.003,0.006-0.006l0,0   c0.003,0,0.003-0.003,0.003-0.003s0,0,0.003,0c0.049-0.049,0.101-0.091,0.156-0.131c0.003-0.003,0.003-0.003,0.003-0.003   s0.003,0,0.003-0.003c0,0,0,0,0.003,0c0,0,0,0,0.003-0.003c0,0,0,0,0.003-0.003c0,0,0,0,0.003,0c0,0,0-0.003,0.003-0.003l0,0   c0.162-0.113,0.345-0.198,0.543-0.244l0,0c0.003,0,0.003,0,0.006,0h0.003c0.003-0.003,0.003-0.003,0.003-0.003s0.003,0,0.006,0l0,0   c0.04-0.009,0.079-0.015,0.122-0.021l26.802-3.831c0.244-0.034,0.488-0.009,0.714,0.064l22.975,7.661   c0.345,0.113,0.652,0.351,0.851,0.686c0.006,0.009,0.013,0.016,0.016,0.024l15.316,26.802c0.167,0.293,0.234,0.634,0.191,0.97   l-3.83,30.636l0,0c0,0.003,0,0.003,0,0.003c0,0.003,0,0.003,0,0.003v0.003c-0.003,0.004-0.003,0.007-0.003,0.007v0.003   c0,0,0,0,0,0.003l0,0c0,0.003,0,0.003,0,0.006l0,0c-0.034,0.229-0.116,0.442-0.238,0.632l0,0c-0.006,0.006-0.009,0.012-0.012,0.015   c0,0,0,0,0,0.003c0,0-0.004,0-0.004,0.003l0,0c-0.003,0.004-0.003,0.004-0.003,0.007h-0.003c0,0.003,0,0.003,0,0.003   c0,0.003-0.003,0.003-0.003,0.003v0.003H91.49c0,0.003-0.003,0.006-0.003,0.009l0,0c0,0-0.003,0-0.003,0.004l0,0   c-0.003,0-0.003,0.003-0.003,0.003s-0.007,0.006-0.01,0.012l0,0c0,0.003,0,0.003-0.003,0.003v0.003   c-0.003,0.004-0.006,0.007-0.009,0.01l0,0c0,0.003-0.007,0.006-0.003,0.006c-0.016,0.021-0.034,0.043-0.049,0.064L72.261,93.124   c-0.247,0.295-0.595,0.49-0.979,0.546L44.483,97.5c-0.019,0-0.037,0.003-0.055,0.006h-0.003c0,0,0,0-0.003,0h-0.003h-0.003h-0.003   c-0.003,0.003-0.003,0.003-0.003,0.003s-0.003,0-0.006,0l0,0C44.355,97.513,44.307,97.516,44.258,97.516z M45.819,66.349v27.806   l24.429-3.492l17.741-21.294L70.821,55.632L45.819,66.349z M22.399,83.278l20.297,10.15V66.05L21.225,48.159L8.001,58.081   L22.399,83.278z M72.472,52.954l16.533,13.23l3.422-27.352L78.102,13.763l-12.907,6.45L72.472,52.954z M23.226,45.759   l21.297,17.748L69.26,52.905l-7.146-32.149l-24.624-3.52L23.226,45.759z M11.271,31.507l-3.23,22.643l12.004-9.01l14.651-29.3   l-5.654-5.654L11.271,31.507z M37.332,14.059l25.81,3.69l11.511-5.755l-19.05-6.353L32.25,8.978L37.332,14.059z"></path></g></svg>