<?xml version="1.0" encoding="UTF-8" standalone="no"?>
<!DOCTYPE svg PUBLIC "-//W3C//DTD SVG 20010904//EN"
              "http://www.w3.org/TR/2001/REC-SVG-20010904/DTD/svg10.dtd">

<svg xmlns="http://www.w3.org/2000/svg"
     width="1.11111in" height="1.11111in"
     viewBox="0 0 100 100">
  <path id="Imported Path copy #1"
        fill="#000000" stroke="black" stroke-width="1"
        d="M 56.52,37.68
           C 56.52,37.68 43.17,5.33 43.17,5.33
             43.00,4.92 42.54,4.70 42.11,4.83
             42.11,4.83 17.32,12.49 17.32,12.49
             17.22,12.52 17.13,12.57 17.04,12.64
             17.04,12.64 8.42,19.33 8.42,19.33
             8.04,19.52 7.86,19.95 7.97,20.35
             7.97,20.36 7.97,20.37 7.97,20.39
             7.97,20.39 7.98,20.40 7.98,20.40
             7.99,20.42 7.99,20.43 7.99,20.44
             7.99,20.44 21.62,53.27 21.62,53.27
             21.72,53.50 21.91,53.63 22.13,53.71
             22.19,53.74 22.26,53.76 22.32,53.77
             22.36,53.78 22.39,53.80 22.42,53.80
             22.43,53.80 22.44,53.80 22.45,53.80
             22.47,53.80 22.48,53.81 22.50,53.81
             22.52,53.81 22.55,53.80 22.57,53.80
             22.59,53.80 22.61,53.79 22.64,53.78
             22.68,53.77 22.72,53.78 22.76,53.76
             22.76,53.76 48.66,45.75 48.66,45.75
             48.68,45.75 48.69,45.74 48.71,45.73
             48.84,45.69 48.97,45.64 49.07,45.54
             49.07,45.54 56.32,38.64 56.32,38.64
             56.58,38.39 56.66,38.01 56.52,37.68 Z
           M 11.72,21.21
           C 11.72,21.21 20.22,35.40 20.22,35.40
             20.22,35.40 21.21,47.75 21.21,47.75
             21.21,47.75 10.14,21.10 10.14,21.10
             10.14,21.10 11.72,21.21 11.72,21.21 Z
           M 22.00,35.91
           C 22.00,35.91 36.54,36.04 36.54,36.04
             36.65,36.12 36.77,36.19 36.92,36.19
             36.92,36.19 36.92,36.19 36.92,36.19
             36.92,36.19 46.70,44.52 46.70,44.52
             46.70,44.52 23.28,51.77 23.28,51.77
             23.28,51.77 22.00,35.91 22.00,35.91 Z
           M 36.38,34.32
           C 36.38,34.32 21.51,34.17 21.51,34.17
             21.51,34.17 13.57,20.92 13.57,20.92
             13.57,20.92 41.22,7.26 41.22,7.26
             41.22,7.26 36.38,34.32 36.38,34.32 Z
           M 17.98,14.11
           C 17.98,14.11 32.56,9.60 32.56,9.60
             32.56,9.60 12.42,19.55 12.42,19.55
             12.37,19.54 12.34,19.52 12.30,19.51
             12.30,19.51 11.13,19.43 11.13,19.43
             11.13,19.43 17.98,14.11 17.98,14.11 Z
           M 48.44,43.74
           C 48.44,43.74 38.04,34.91 38.04,34.91
             38.04,34.91 42.71,8.77 42.71,8.77
             42.71,8.77 54.69,37.79 54.69,37.79
             54.69,37.79 48.44,43.74 48.44,43.74 Z
           M 45.48,79.68
           C 45.48,79.68 58.83,47.33 58.83,47.33
             59.00,46.92 59.46,46.70 59.89,46.83
             59.89,46.83 84.68,54.49 84.68,54.49
             84.78,54.52 84.87,54.57 84.96,54.64
             84.96,54.64 93.58,61.33 93.58,61.33
             93.96,61.52 94.14,61.95 94.03,62.35
             94.03,62.36 94.03,62.37 94.03,62.39
             94.03,62.39 94.02,62.40 94.02,62.40
             94.01,62.42 94.01,62.43 94.01,62.44
             94.01,62.44 80.38,95.27 80.38,95.27
             80.28,95.50 80.09,95.63 79.87,95.71
             79.81,95.74 79.74,95.76 79.68,95.77
             79.64,95.78 79.61,95.80 79.58,95.80
             79.57,95.80 79.56,95.80 79.55,95.80
             79.53,95.80 79.52,95.81 79.50,95.81
             79.48,95.81 79.45,95.80 79.43,95.80
             79.41,95.80 79.39,95.79 79.36,95.78
             79.32,95.77 79.28,95.78 79.24,95.76
             79.24,95.76 53.34,87.75 53.34,87.75
             53.32,87.75 53.31,87.74 53.29,87.73
             53.16,87.69 53.03,87.64 52.93,87.54
             52.93,87.54 45.68,80.64 45.68,80.64
             45.42,80.39 45.34,80.01 45.48,79.68 Z
           M 90.28,63.21
           C 90.28,63.21 81.78,77.40 81.78,77.40
             81.78,77.40 80.79,89.75 80.79,89.75
             80.79,89.75 91.86,63.10 91.86,63.10
             91.86,63.10 90.28,63.21 90.28,63.21 Z
           M 80.00,77.91
           C 80.00,77.91 65.46,78.04 65.46,78.04
             65.35,78.12 65.23,78.19 65.08,78.19
             65.08,78.19 65.08,78.19 65.08,78.19
             65.08,78.19 55.30,86.52 55.30,86.52
             55.30,86.52 78.72,93.77 78.72,93.77
             78.72,93.77 80.00,77.91 80.00,77.91 Z
           M 65.62,76.32
           C 65.62,76.32 80.49,76.17 80.49,76.17
             80.49,76.17 88.43,62.92 88.43,62.92
             88.43,62.92 60.78,49.26 60.78,49.26
             60.78,49.26 65.62,76.32 65.62,76.32 Z
           M 84.02,56.11
           C 84.02,56.11 69.44,51.60 69.44,51.60
             69.44,51.60 89.58,61.55 89.58,61.55
             89.63,61.54 89.66,61.52 89.70,61.51
             89.70,61.51 90.87,61.43 90.87,61.43
             90.87,61.43 84.02,56.11 84.02,56.11 Z
           M 53.56,85.74
           C 53.56,85.74 63.96,76.91 63.96,76.91
             63.96,76.91 59.29,50.77 59.29,50.77
             59.29,50.77 47.31,79.79 47.31,79.79
             47.31,79.79 53.56,85.74 53.56,85.74 Z" />
</svg>
