<svg height='100px' width='100px'  fill="#000000" xmlns="http://www.w3.org/2000/svg" xmlns:xlink="http://www.w3.org/1999/xlink" version="1.1" x="0px" y="0px" viewBox="0 0 100 100" enable-background="new 0 0 100 100" xml:space="preserve"><g><path d="M86.495,12.829c-0.008-0.225-0.056-0.451-0.146-0.665c-0.056-0.133-0.124-0.26-0.206-0.374   c-0.189-0.271-0.436-0.481-0.714-0.623c-0.178-0.092-0.373-0.157-0.577-0.187c-0.042-0.008-0.086-0.016-0.128-0.019L10.25,3.175   C9.956,3.129,9.849,3.146,9.837,3.154C9.371,3.33,8.607,4.966,8.635,5.271l4.858,82.267c0.008,0.164-0.024,0.328,0.021,0.48   c0.065,0.222,0.141,0.425,0.272,0.604c0.197,0.268,0.445,0.485,0.76,0.627c0.13,0.057,0.256,0.103,0.4,0.134   c0.074,0.015,0.146,0.026,0.22,0.03l74.119,7.786c0.08,0.012,0.155-0.07,0.236-0.07C89.652,97.125,89.79,97,89.924,97l0,0h0.002   c0.422,0,0.817,0,1.109,0c0,0,0,0,0.002,0c0.032-1,0.063-0.334,0.094-0.375c0.264-0.379,0.374-0.942,0.346-1.374L86.495,12.829z    M78.504,14.242L27.339,44.828L13.295,7.391L78.504,14.242z M13.089,17.977l11.188,29.822l-7.701,27.84L13.089,17.977z    M17.832,85.762l9.618-34.767l55.258,41.584L17.832,85.762z M29.831,47.894l52.954-31.655l4.533,74.911L29.831,47.894z"></path></g></svg>